<svg width="18" height="18" viewBox="0 0 18 18" fill="none" xmlns="http://www.w3.org/2000/svg">
<path d="M11.25 18C11.0333 18 10.8208 17.9792 10.6125 17.9375C10.4042 17.8958 10.2 17.8333 10 17.75V0.25C10.2 0.166667 10.4042 0.104167 10.6125 0.0625C10.8208 0.0208333 11.0333 0 11.25 0C12.1167 0 12.8625 0.291667 13.4875 0.875C14.1125 1.45833 14.45 2.175 14.5 3.025C15.4833 3.15833 16.3125 3.6 16.9875 4.35C17.6625 5.1 18 5.98333 18 7C18 7.36667 17.9542 7.71667 17.8625 8.05C17.7708 8.38333 17.6333 8.7 17.45 9C17.6333 9.3 17.7708 9.62083 17.8625 9.9625C17.9542 10.3042 18 10.65 18 11C18 12.0333 17.6625 12.9208 16.9875 13.6625C16.3125 14.4042 15.475 14.8417 14.475 14.975C14.3917 15.8083 14.0458 16.5208 13.4375 17.1125C12.8292 17.7042 12.1 18 11.25 18ZM6.75 18C5.9 18 5.16667 17.7042 4.55 17.1125C3.93333 16.5208 3.58333 15.8083 3.5 14.975C2.5 14.8417 1.66667 14.4 1 13.65C0.333333 12.9 0 12.0167 0 11C0 10.65 0.0458333 10.3042 0.1375 9.9625C0.229167 9.62083 0.366667 9.3 0.55 9C0.366667 8.7 0.229167 8.38333 0.1375 8.05C0.0458333 7.71667 0 7.36667 0 7C0 5.98333 0.333333 5.10417 1 4.3625C1.66667 3.62083 2.49167 3.18333 3.475 3.05C3.525 2.2 3.86667 1.47917 4.5 0.8875C5.13333 0.295833 5.88333 0 6.75 0C6.96667 0 7.17917 0.025 7.3875 0.075C7.59583 0.125 7.8 0.191667 8 0.275V17.75C7.8 17.8333 7.59583 17.8958 7.3875 17.9375C7.17917 17.9792 6.96667 18 6.75 18Z" fill="#0035C5"/>
</svg>
